# xmcd
#
# Track frame offsets:
#	150
#	14138
#	25665
#	40866
#	53693
#	66644
#	82421
#	100736
#	115389
#	130377
#	143217
#
# Disc length: 2094 seconds
# Revision: 0
# Processed by: cddbd v1.5.2PL0 Copyright (c) Steve Scherf et al.
# Submitted via: dBpowerAMP V12.0
#
DISCID=a2082c0b
DTITLE=Destry - DesTry
DYEAR=2004
DGENRE=Country
TTITLE0=I'm Looking Out For Number One
TTITLE1=Corner Of Your Mansion
TTITLE2=If I Can't Go Home
TTITLE3=I've Got My Heart Set On You
TTITLE4=She Does It Well
TTITLE5=Fast Train Moving
TTITLE6=Borderline
TTITLE7=Matchbook
TTITLE8=Midnight Madness
TTITLE9=Heart Shaped Box
TTITLE10=True Believers
EXTD=
EXTT0=
EXTT1=
EXTT2=
EXTT3=
EXTT4=
EXTT5=
EXTT6=
EXTT7=
EXTT8=
EXTT9=
EXTT10=
PLAYORDER=
